<?xml version="1.0" encoding="UTF-8"?>
<svg width="22px" height="22px" viewBox="0 0 22 22" version="1.1" xmlns="http://www.w3.org/2000/svg" xmlns:xlink="http://www.w3.org/1999/xlink">
    <title>认证</title>
    <defs>
        <linearGradient x1="33.5267986%" y1="4.4983845%" x2="75.6311754%" y2="93.4830778%" id="linearGradient-1">
            <stop stop-color="#CCFAEF" offset="0%"></stop>
            <stop stop-color="#7AE1CA" offset="100%"></stop>
        </linearGradient>
        <linearGradient x1="40.5936568%" y1="6.14956985%" x2="66.6968296%" y2="94.1940261%" id="linearGradient-2">
            <stop stop-color="#99E8D6" offset="0%"></stop>
            <stop stop-color="#48C0A5" offset="100%"></stop>
        </linearGradient>
        <path d="M8.28776032,8.06187447 C9.24658342,7.18291319 10.7120423,7.27503021 11.5610389,8.26755663 C12.4100356,9.25994557 12.3211918,10.777264 11.3625015,11.6565002 C10.403944,12.535324 8.93821953,12.4433445 8.08909005,11.4508181 C7.24009336,10.4581542 7.32893722,8.94097323 8.28776032,8.06187447 Z M7.3290169,6.37283345 C7.69647722,6.3445109 8.24467968,6.65399656 8.77628201,7.12915536 C7.69448521,7.52732083 6.97151665,8.58707892 6.97085265,9.77580083 C6.97018864,10.505725 7.24468828,11.2070517 7.73591911,11.7307438 L7.73591911,11.7307438 L3.09558716,11.7307438 C1.6823191,11.7307438 0.527083345,11.376437 0.527083345,9.90448967 C0.527083345,8.43254232 2.24725448,6.37778302 3.66038974,6.37778302 C4.31762181,6.8231069 4.61536161,7.08158448 5.45745264,7.08158448 C6.29967648,7.08158448 6.67205044,6.81746989 7.3290169,6.37283345 Z M11.1536055,8.8767663 C11.026515,8.78808649 10.8541393,8.82039619 10.7648971,8.94949749 L10.7648971,8.94949749 L9.76716327,10.5615452 L9.09120627,9.61686461 C9.05110037,9.55032039 8.98589509,9.5039869 8.91152654,9.48913819 C8.83702518,9.47415199 8.76000061,9.49188795 8.69851376,9.53794646 C8.5691656,9.62841361 8.53477015,9.81017285 8.62162199,9.9444987 L8.62162199,9.9444987 L9.5286527,11.2610845 C9.5817731,11.3428899 9.67154656,11.3914232 9.76689767,11.3893609 C9.86238157,11.3911482 9.95228784,11.3427524 10.0060722,11.2610845 L10.0060722,11.2610845 L11.2344813,9.27713158 C11.3166851,9.14294321 11.2808289,8.96544611 11.1536055,8.8767663 Z M4.16583028,0.993199983 C4.96436259,0.512266691 5.9508083,0.512266691 6.74934061,0.993199983 C7.55013054,1.47674555 8.04215818,2.36464355 8.04123074,3.32444781 C8.04242378,4.28466454 7.55026334,5.17283751 6.74934061,5.65652057 C5.9508083,6.13731637 4.96436259,6.13731637 4.16583028,5.65652057 C3.36610276,5.1753123 2.873941,4.28672686 2.873941,3.32444781 C2.87301271,2.36464355 3.36504035,1.47674555 4.16583028,0.993199983 Z" id="path-3"></path>
        <filter x="-4.3%" y="-4.3%" width="108.6%" height="117.2%" filterUnits="objectBoundingBox" id="filter-4">
            <feOffset dx="0" dy="1" in="SourceAlpha" result="shadowOffsetOuter1"></feOffset>
            <feColorMatrix values="0 0 0 0 0.340358167   0 0 0 0 0.64842777   0 0 0 0 0.579112109  0 0 0 1 0" type="matrix" in="shadowOffsetOuter1"></feColorMatrix>
        </filter>
    </defs>
    <g id="文库首页V2.0-规划" stroke="none" stroke-width="1" fill="none" fill-rule="evenodd">
        <g id="开发者文库-头部信息优化和交互" transform="translate(-272.000000, -3136.000000)">
            <g id="编组-19" transform="translate(272.000000, 3136.000000)">
                <g id="编组-6备份-2">
                    <polygon id="多边形" fill="url(#linearGradient-1)" points="11.0000002 0 20.5262799 5.50000012 20.5262799 16.5000004 11.0000002 22.0000005 1.47372059 16.5000004 1.47372059 5.50000012"></polygon>
                    <polygon id="多边形备份-2" fill="url(#linearGradient-2)" points="11.0000002 2.20000005 18.621024 6.60000014 18.621024 15.4000003 11.0000002 19.8000004 3.37897652 15.4000003 3.37897652 6.60000014"></polygon>
                </g>
                <g id="编组" transform="translate(4.950000, 3.630000)">
                    <g id="形状结合">
                        <use fill="black" fill-opacity="1" filter="url(#filter-4)" xlink:href="#path-3"></use>
                        <use fill="#FFFFFF" fill-rule="evenodd" xlink:href="#path-3"></use>
                    </g>
                    <g transform="translate(7.333167, 7.149216)"></g>
                </g>
            </g>
        </g>
    </g>
</svg>