<?xml version="1.0" encoding="UTF-8"?>
<svg width="22px" height="22px" viewBox="0 0 22 22" version="1.1" xmlns="http://www.w3.org/2000/svg" xmlns:xlink="http://www.w3.org/1999/xlink">
    <title>VIP</title>
    <defs>
        <linearGradient x1="33.5267986%" y1="5.02188866%" x2="75.6311754%" y2="92.9827972%" id="linearGradient-1">
            <stop stop-color="#FFF0D2" offset="0%"></stop>
            <stop stop-color="#FFCB77" offset="100%"></stop>
        </linearGradient>
        <linearGradient x1="40.7034643%" y1="6.88070826%" x2="66.8911655%" y2="94.1940261%" id="linearGradient-2">
            <stop stop-color="#FACF7A" offset="0%"></stop>
            <stop stop-color="#CA943E" offset="100%"></stop>
        </linearGradient>
        <path d="M11.0607908,4.3987914 C11.9770967,4.3987914 12.7199094,5.13731865 12.7199094,6.04833818 C12.7199094,6.8939424 12.0799414,7.59093643 11.2552812,7.68667122 C12.3275883,12.0156254 13.1943267,12.7570202 15.8834628,9.6221564 C15.4825557,9.41733309 15.2085873,9.00180552 15.2085873,8.52265835 C15.2085873,7.8393937 15.7656968,7.28549826 16.4529263,7.28549826 C17.1401557,7.28549826 17.6972652,7.8393937 17.6972652,8.52265835 C17.6972652,9.20592299 17.1401557,9.75981843 16.4529263,9.75981843 C16.4180913,9.75981843 16.3835907,9.75839527 16.34948,9.75560423 L15.8365147,13.8378881 C15.7147239,14.806593 14.8910073,15.5332321 13.9146764,15.5332321 L8.20690515,15.5332321 C7.2305742,15.5332321 6.40685762,14.806593 6.28506687,13.8378881 L5.77131631,9.7537914 L5.66865527,9.75981843 C5.02437768,9.75981843 4.49446328,9.27299627 4.43074069,8.64915078 L4.42431631,8.52265835 C4.42431631,7.8393937 4.98142584,7.28549826 5.66865527,7.28549826 C6.3558847,7.28549826 6.91299423,7.8393937 6.91299423,8.52265835 C6.91299423,9.00180552 6.63902579,9.41733309 6.23833956,9.62283994 C8.92725478,12.7570202 9.79399326,12.0156254 10.8663051,7.6860108 C10.0416401,7.59093643 9.40167215,6.8939424 9.40167215,6.04833818 C9.40167215,5.13731865 10.1444849,4.3987914 11.0607908,4.3987914 Z" id="path-3"></path>
        <filter x="-3.8%" y="-4.5%" width="107.5%" height="118.0%" filterUnits="objectBoundingBox" id="filter-4">
            <feOffset dx="0" dy="1" in="SourceAlpha" result="shadowOffsetOuter1"></feOffset>
            <feColorMatrix values="0 0 0 0 0.890196078   0 0 0 0 0.705882353   0 0 0 0 0.407843137  0 0 0 1 0" type="matrix" in="shadowOffsetOuter1"></feColorMatrix>
        </filter>
    </defs>
    <g id="文库首页V2.0-规划" stroke="none" stroke-width="1" fill="none" fill-rule="evenodd">
        <g id="开发者文库-头部信息优化和交互" transform="translate(-305.000000, -3136.000000)">
            <g id="编组-21" transform="translate(305.000000, 3136.000000)">
                <polygon id="多边形" fill="url(#linearGradient-1)" points="10.9969785 0 20.5206413 5.4667672 20.5206413 16.4003016 10.9969785 21.8670688 1.47331576 16.4003016 1.47331576 5.4667672"></polygon>
                <polygon id="多边形备份-2" fill="url(#linearGradient-2)" points="11.0607908 2.1993957 18.7239314 6.59818711 18.7239314 15.3957699 11.0607908 19.7945613 3.39765013 15.3957699 3.39765013 6.59818711"></polygon>
                <g id="形状结合">
                    <use fill="black" fill-opacity="1" filter="url(#filter-4)" xlink:href="#path-3"></use>
                    <use fill="#FFFFFF" fill-rule="evenodd" xlink:href="#path-3"></use>
                </g>
            </g>
        </g>
    </g>
</svg>